<svg xmlns="http://www.w3.org/2000/svg" xmlns:xlink="http://www.w3.org/1999/xlink" width="500" zoomAndPan="magnify" viewBox="0 0 375 374.999991" height="500" preserveAspectRatio="xMidYMid meet" version="1.0"><defs><clipPath id="e8fd03cfe5"><path d="M 44 38.203125 L 330 38.203125 L 330 336.703125 L 44 336.703125 Z M 44 38.203125 " clip-rule="nonzero"/></clipPath></defs><g clip-path="url(#e8fd03cfe5)"><path fill="#faf7f5" d="M 266.695312 336.773438 L 108.085938 336.773438 C 73.15625 336.773438 44.816406 308.4375 44.816406 273.726562 L 44.816406 170.914062 C 44.816406 135.984375 73.15625 107.644531 108.085938 107.644531 L 180.578125 107.644531 L 180.800781 83.480469 C 171.351562 80.625 164.324219 71.835938 164.324219 61.292969 C 164.324219 48.550781 174.867188 38.226562 187.609375 38.226562 C 200.351562 38.226562 210.894531 48.550781 210.894531 61.292969 C 210.894531 71.835938 203.648438 80.84375 193.980469 83.699219 L 193.761719 107.644531 L 266.695312 107.644531 C 301.40625 107.644531 329.746094 135.984375 329.746094 170.914062 L 329.746094 273.945312 C 329.746094 308.65625 301.40625 336.773438 266.695312 336.773438 Z M 127.855469 237.039062 C 109.183594 237.039062 94.464844 222.320312 94.464844 203.867188 C 94.464844 185.191406 109.183594 170.472656 127.855469 170.472656 C 146.527344 170.472656 161.027344 185.191406 161.027344 203.867188 C 161.027344 222.320312 146.527344 237.039062 127.855469 237.039062 Z M 127.855469 183.65625 C 116.433594 183.65625 107.644531 192.441406 107.644531 203.867188 C 107.644531 215.070312 116.433594 223.859375 127.855469 223.859375 C 139.058594 223.859375 148.066406 215.070312 148.066406 203.867188 C 148.066406 192.441406 139.058594 183.65625 127.855469 183.65625 Z M 247.144531 235.71875 C 228.472656 235.71875 213.53125 220.78125 213.53125 202.328125 C 213.53125 183.875 228.472656 168.9375 247.144531 168.9375 C 265.378906 168.9375 280.316406 183.875 280.316406 202.328125 C 280.316406 220.78125 265.378906 235.71875 247.144531 235.71875 Z M 247.144531 182.117188 C 235.71875 182.117188 226.714844 191.34375 226.714844 202.328125 C 226.714844 213.53125 235.71875 222.757812 247.144531 222.757812 C 258.347656 222.757812 267.136719 213.53125 267.136719 202.328125 C 267.136719 190.90625 258.128906 182.117188 247.144531 182.117188 Z M 184.972656 275.703125 C 172.453125 275.703125 161.46875 269.773438 155.316406 264.5 C 152.460938 262.082031 152.242188 257.6875 154.65625 255.273438 C 157.074219 252.636719 161.027344 252.195312 163.882812 254.832031 C 165.859375 256.589844 184.972656 271.75 203.207031 255.050781 C 205.84375 252.636719 209.796875 252.636719 212.652344 255.273438 C 215.070312 258.128906 215.070312 262.082031 212.433594 264.71875 C 203.207031 272.628906 193.761719 275.703125 184.972656 275.703125 Z M 184.972656 275.703125 " fill-opacity="1" fill-rule="evenodd"/></g><path fill="#faf7f5" d="M 31.632812 266.257812 L 29 266.257812 C 13.179688 266.257812 0 253.296875 0 237.257812 L 0 192.441406 C 0 176.40625 13.179688 163.226562 29 163.226562 L 32.074219 163.226562 C 31.855469 165.640625 31.632812 168.277344 31.632812 170.914062 Z M 31.632812 266.257812 " fill-opacity="1" fill-rule="evenodd"/><path fill="#faf7f5" d="M 345.5625 266.257812 L 342.925781 266.257812 L 342.925781 170.914062 C 342.925781 168.058594 342.707031 165.421875 342.488281 163.003906 L 345.5625 163.003906 C 361.820312 163.003906 375 175.964844 375 192.222656 L 375 237.257812 C 375 253.515625 361.820312 266.257812 345.5625 266.257812 Z M 345.5625 266.257812 " fill-opacity="1" fill-rule="evenodd"/></svg>