<svg xmlns="http://www.w3.org/2000/svg" xmlns:xlink="http://www.w3.org/1999/xlink" width="500" zoomAndPan="magnify" viewBox="0 0 375 374.999991" height="500" preserveAspectRatio="xMidYMid meet" version="1.0"><path fill="#faf7f5" d="M 187.5 0 C 83.945312 0 0 83.945312 0 187.5 C 0 291.054688 83.945312 375 187.5 375 C 291.054688 375 375 291.054688 375 187.5 C 375 83.945312 291.054688 0 187.5 0 Z M 260.535156 150.730469 C 261.589844 151.941406 263.164062 152.496094 265.289062 152.367188 C 270.488281 152.058594 274.457031 150.433594 276.753906 147.664062 C 277.707031 146.515625 278.347656 145.199219 278.65625 143.757812 C 279.738281 146.320312 280.871094 147.769531 282.914062 147.769531 C 283.601562 147.769531 285.355469 147.769531 288.730469 144.085938 C 290.257812 147.902344 292.972656 152.136719 297.527344 152.382812 C 301.046875 152.574219 305.300781 152.53125 308.109375 152.472656 L 308.109375 160.476562 C 300.316406 161.230469 291.753906 161.441406 289.851562 160.492188 C 284.238281 157.6875 278.113281 161.398438 278.101562 161.417969 C 275.332031 162.78125 268.625 165.222656 265.621094 164.046875 C 265.066406 163.828125 264.757812 163.523438 264.550781 162.988281 C 263.980469 161.523438 263.503906 160.0625 263.050781 158.6875 C 261.46875 153.882812 259.546875 148.035156 254.160156 148.035156 C 253.488281 148.035156 252.757812 148.125 251.96875 148.324219 C 250.496094 148.691406 247.632812 148.984375 244.601562 149.296875 C 242.34375 149.53125 240.207031 149.761719 238.21875 150.023438 C 239.199219 149.417969 240.214844 148.664062 241.261719 147.734375 C 248.058594 141.695312 255.1875 137.644531 258.492188 137.859375 C 259.160156 137.90625 259.421875 138.113281 259.59375 138.3125 C 260.585938 139.46875 260.308594 141.355469 259.808594 143.898438 C 259.355469 146.191406 258.84375 148.792969 260.535156 150.730469 Z M 261.632812 97.617188 C 263.691406 97.765625 265.667969 97.460938 267.359375 96.277344 C 269.605469 94.707031 270.820312 92.011719 271.066406 88.042969 C 271.574219 80.015625 272.695312 75.402344 273.53125 73.058594 C 274.171875 75.429688 274.820312 79.066406 275.183594 82.589844 C 275.339844 84.113281 276.550781 85.332031 278.058594 85.21875 C 278.0625 85.21875 278.292969 85.238281 278.398438 85.367188 C 278.585938 85.59375 278.75 86.289062 278.601562 87.496094 C 277.941406 92.785156 273.480469 102.554688 268.851562 102.554688 C 266.765625 102.554688 264.855469 100.703125 263.007812 98.914062 C 262.554688 98.472656 262.101562 98.03125 261.632812 97.617188 Z M 176.351562 12.109375 C 177.484375 12.039062 178.613281 11.964844 179.75 11.917969 C 177.207031 13.421875 174.800781 14.964844 172.648438 16.507812 C 174.183594 14.820312 175.398438 13.386719 176.351562 12.109375 Z M 362.632812 173.015625 C 362.785156 174.851562 362.960938 176.683594 363.050781 178.535156 C 362.71875 178.363281 362.355469 178.199219 361.949219 178.054688 C 360.382812 177.5 358.320312 176.910156 356.09375 176.273438 C 353.101562 175.421875 347.554688 173.84375 344.832031 172.421875 C 348.308594 171.921875 355.554688 172.125 362.632812 173.015625 Z M 332.550781 204.265625 C 348.273438 202.019531 357.296875 198.78125 359.371094 194.640625 C 359.835938 193.710938 360.914062 192.417969 361.949219 191.171875 C 362.382812 190.652344 362.808594 190.128906 363.226562 189.605469 C 362.089844 285.558594 283.71875 363.28125 187.5 363.28125 C 93.125 363.28125 15.90625 288.511719 11.910156 195.101562 C 14.335938 195.660156 17.046875 195.441406 19.851562 195.207031 C 24.085938 194.855469 28.878906 194.460938 34.558594 196.140625 C 45.476562 199.375 45.8125 200.929688 46.625 204.699219 C 47.136719 207.078125 47.84375 210.335938 50.484375 214.5625 C 52.824219 218.308594 56.289062 220.664062 60.492188 221.382812 C 61.476562 221.550781 62.460938 221.625 63.453125 221.625 C 71.078125 221.625 78.558594 217.105469 80.816406 215.300781 C 82.785156 213.726562 82.671875 212.050781 82.433594 211.1875 C 81.671875 208.472656 78.691406 208.082031 74.171875 207.496094 C 72.570312 207.289062 70.703125 207.046875 69.195312 206.660156 C 70.527344 205.40625 72.074219 203.730469 72.074219 201.363281 C 72.074219 198.179688 69.75 196.679688 67.886719 195.476562 C 66.355469 194.484375 64.617188 193.363281 63.1875 191.078125 C 62.144531 189.40625 62.328125 189.027344 63.101562 187.429688 C 63.914062 185.761719 65.136719 183.238281 64.269531 179.339844 C 63.78125 177.148438 62.421875 176.292969 61.65625 175.984375 C 59.1875 174.976562 56.78125 176.539062 54 178.351562 C 52.019531 179.644531 49.027344 181.574219 47.585938 181.140625 C 46.773438 180.890625 46.144531 179.605469 45.835938 178.863281 C 44.925781 176.65625 45.457031 175.453125 45.9375 174.738281 C 48.71875 170.578125 59.679688 168.851562 64.925781 168.851562 C 66.019531 168.851562 68.398438 170.835938 70.136719 172.28125 C 73.671875 175.222656 78.070312 178.886719 82.828125 177.097656 C 86.558594 175.703125 89.292969 169.925781 94.195312 158.988281 C 97.902344 150.71875 102.101562 141.347656 106.378906 137.070312 C 111.804688 131.644531 117.40625 132.027344 122.824219 132.402344 C 125.445312 132.582031 127.929688 132.753906 130.257812 132.238281 C 132.21875 131.800781 134.617188 131.019531 135.742188 128.828125 C 137.078125 126.226562 135.925781 123.515625 134.179688 119.414062 C 133.875 118.703125 133.546875 117.933594 133.203125 117.101562 C 134.476562 117.261719 135.917969 117.191406 137.492188 116.722656 C 137.726562 116.652344 137.859375 116.640625 137.878906 116.625 C 138.300781 116.980469 138.9375 118.625 139.320312 119.621094 C 140.71875 123.242188 143.015625 129.324219 150.910156 128.785156 C 153.941406 128.585938 156.132812 127.539062 157.421875 125.679688 C 159.789062 122.253906 158.363281 117.523438 156.554688 111.535156 C 155.394531 107.691406 154.082031 103.339844 153.632812 98.839844 C 153.089844 93.441406 151.429688 89.980469 148.554688 88.257812 C 144.734375 85.972656 140.449219 87.75 137.886719 88.808594 C 137.878906 88.8125 137.871094 88.816406 137.859375 88.820312 C 137.421875 87.886719 136.882812 86.445312 136.460938 85.304688 C 134.933594 81.207031 133.210938 76.5625 129.980469 74.121094 C 128.800781 73.226562 127.398438 72.894531 126.027344 73.183594 C 122.878906 73.855469 120.882812 77.484375 118.574219 81.683594 C 117.371094 83.867188 114.871094 88.410156 113.671875 88.648438 C 107.953125 86.742188 104.554688 92.042969 102.8125 95.023438 C 101.9375 93.875 101.289062 92.394531 100.894531 87.617188 C 100.621094 84.324219 112.316406 76.640625 118.597656 72.511719 C 125.507812 67.96875 131.472656 64.046875 133.539062 60.605469 C 134.375 59.207031 135.9375 56.609375 134.183594 54.53125 C 132.449219 52.488281 130.046875 53.4375 127.253906 54.53125 C 125.234375 55.320312 122.273438 56.476562 120.113281 56.28125 C 120.460938 55.132812 121.640625 53.234375 122.078125 52.53125 C 122.882812 51.238281 124.226562 49.074219 122.292969 47.339844 C 120.355469 45.597656 118.265625 47.226562 117.265625 48.007812 C 112.546875 51.714844 100.542969 56.167969 96.566406 56.167969 C 95.855469 56.167969 95.398438 56.148438 95.109375 56.125 C 94.976562 55.402344 94.882812 54.042969 94.792969 52.714844 C 94.726562 51.84375 94.660156 50.847656 94.566406 49.71875 C 94.355469 47.207031 93.210938 45.066406 91.253906 43.535156 C 90.515625 42.957031 89.683594 42.5 88.804688 42.121094 C 94.546875 38.214844 100.542969 34.667969 106.742188 31.445312 C 108.945312 33.613281 114.527344 36.835938 130.421875 40.179688 C 134.707031 41.082031 137.636719 42.433594 139.992188 43.523438 C 142.148438 44.515625 144.050781 45.269531 145.832031 45.269531 C 148.472656 45.269531 150.839844 43.613281 153.335938 38.625 C 154.882812 35.535156 159.128906 30.808594 163.542969 26.136719 C 163.230469 27.0625 163.132812 27.960938 163.320312 28.8125 C 164.15625 32.566406 165.832031 35.855469 167.179688 38.5 C 167.703125 39.527344 168.367188 40.832031 168.6875 41.6875 C 168.332031 41.929688 167.882812 42.210938 167.511719 42.441406 C 165.082031 43.960938 161.75 46.039062 161.152344 49.808594 C 160.761719 52.261719 161.683594 54.839844 163.894531 57.46875 C 167.710938 62.015625 166.671875 65.316406 165.359375 69.492188 C 164.667969 71.683594 163.957031 73.949219 163.957031 76.457031 C 163.957031 77.683594 163.773438 79.679688 163.578125 81.789062 C 162.65625 91.855469 162.316406 99.1875 166.417969 101.90625 C 167.125 102.378906 168.113281 102.792969 169.386719 102.792969 C 170.453125 102.792969 171.71875 102.5 173.191406 101.714844 C 177.957031 99.164062 179.375 96.484375 181.015625 93.378906 C 183.042969 89.546875 185.816406 84.300781 196.933594 74.707031 C 216.675781 57.652344 231.679688 25.550781 232.367188 17.542969 C 260.105469 24.875 285.191406 38.8125 305.792969 57.59375 C 303.347656 61.914062 300.117188 65.824219 297.5 65.351562 C 296.539062 65.175781 296.503906 65.167969 296.382812 62.601562 C 296.210938 58.855469 295.917969 52.585938 285.585938 50.554688 C 270.84375 47.65625 249.910156 54.332031 245.015625 67.285156 C 241.640625 76.214844 241.308594 84.949219 244.152344 90.085938 C 245.625 92.742188 247.886719 94.441406 250.695312 95.003906 C 251.882812 95.242188 253.164062 95.617188 254.519531 96.015625 C 253.6875 96.507812 252.945312 97.273438 252.300781 98.304688 C 246.378906 107.78125 239.328125 115.171875 237.207031 115.203125 C 233.523438 115.203125 230.582031 118.46875 229.335938 123.941406 C 228.839844 126.117188 228.535156 128.6875 229.179688 130.5625 C 229.144531 130.597656 229.113281 130.632812 229.078125 130.671875 C 226.820312 129.519531 223.253906 128.183594 220.378906 129.300781 C 218.578125 129.996094 217.304688 131.519531 216.789062 133.585938 C 215.503906 138.714844 216.679688 145.738281 219.410156 149.238281 C 221.183594 151.507812 223.1875 151.984375 224.550781 151.984375 C 225.335938 151.984375 226.117188 152.074219 226.917969 152.15625 C 227.214844 152.1875 227.515625 152.21875 227.832031 152.25 C 225.417969 153.164062 223.664062 154.367188 222.710938 156.035156 L 221.449219 158.273438 C 219.179688 162.324219 216.835938 166.515625 214.285156 168.554688 L 213.75 168.980469 C 210.242188 171.761719 204.941406 175.96875 202.710938 185.644531 C 200.320312 195.988281 205.527344 218.261719 218.933594 221.539062 C 227.667969 223.675781 238.378906 222.746094 246.199219 222.066406 C 248.847656 221.835938 251.136719 221.636719 252.707031 221.625 C 255.832031 221.621094 257.378906 223.230469 258.195312 232.25 C 258.625 236.960938 260.589844 239.90625 262.324219 242.503906 C 263.796875 244.707031 264.960938 246.453125 265.226562 249.144531 C 265.515625 252.023438 265.28125 253.996094 264.980469 256.496094 C 264.597656 259.683594 264.121094 263.652344 264.519531 270.800781 C 264.683594 273.710938 264.609375 276.882812 264.535156 280.238281 C 264.289062 291.273438 264.007812 303.777344 273.320312 307.769531 C 274.703125 308.359375 275.882812 308.96875 276.933594 309.511719 C 279.621094 310.894531 281.789062 311.765625 283.917969 311.765625 C 288.554688 311.765625 292.996094 307.628906 302.125 295.601562 C 318.417969 274.132812 321.761719 263.71875 324.441406 252.335938 C 327.203125 240.617188 335.636719 230.0625 342.300781 225.21875 C 348.921875 220.40625 353.644531 212.855469 352.410156 209.058594 C 351.917969 207.546875 350.582031 206.566406 349.011719 206.566406 C 348.699219 206.566406 348.058594 206.628906 347.171875 206.734375 C 342.503906 207.285156 328.300781 208.964844 324.253906 200.140625 C 323.949219 199.480469 323.636719 198.816406 323.316406 198.148438 C 326.214844 202.164062 329.226562 204.730469 332.550781 204.265625 Z M 332.550781 204.265625 " fill-opacity="1" fill-rule="nonzero"/><path fill="#faf7f5" d="M 170.527344 235.5 C 162.890625 233.253906 155.066406 227.570312 148.160156 222.554688 C 144.820312 220.128906 141.667969 217.839844 138.84375 216.171875 C 130.914062 211.492188 118.179688 209.269531 115.191406 208.796875 C 113.035156 207.4375 111.003906 205.933594 109.03125 204.476562 C 104.605469 201.203125 101.105469 198.617188 97.625 198.617188 C 95.972656 198.617188 93.644531 199.21875 91.941406 202.082031 C 88.648438 207.617188 85.15625 213.097656 78.648438 219.324219 C 77.210938 220.703125 75.160156 222.039062 73.179688 223.332031 C 68.707031 226.25 64.082031 229.269531 63.5625 234.25 C 63.21875 237.566406 64.824219 240.949219 68.476562 244.597656 C 72.503906 248.621094 77.253906 251.171875 81.84375 253.640625 C 90.820312 258.460938 98.570312 262.628906 100.707031 276.699219 C 104.683594 302.953125 121.585938 328.128906 128.667969 337.734375 C 133.847656 344.761719 139.378906 348.632812 144.234375 348.632812 C 146.292969 348.632812 148.160156 347.910156 149.492188 346.601562 C 150.808594 345.308594 151.53125 343.542969 151.53125 341.621094 C 151.53125 340.203125 151.664062 338.722656 151.804688 337.152344 C 152.140625 333.433594 152.519531 329.214844 151.484375 323.527344 C 150.09375 315.84375 150.15625 312.183594 151.746094 309.53125 C 152.019531 309.070312 152.640625 308.890625 153.894531 308.617188 C 155.292969 308.308594 157.210938 307.890625 158.28125 306.0625 C 159.019531 304.796875 159.105469 303.277344 158.53125 301.40625 C 158.191406 300.285156 157.765625 299.230469 157.347656 298.210938 C 155.988281 294.875 155.308594 293.199219 157.953125 290.117188 C 162.964844 284.277344 171.082031 271.066406 172.59375 261.246094 C 172.96875 258.8125 174.1875 256.121094 175.371094 253.519531 C 177.339844 249.171875 179.378906 244.671875 177.5625 240.703125 C 176.441406 238.265625 174.140625 236.5625 170.527344 235.5 Z M 170.527344 235.5 " fill-opacity="1" fill-rule="nonzero"/><path fill="#faf7f5" d="M 155.386719 45.726562 C 154.621094 44.359375 152.921875 43.828125 151.515625 44.53125 C 151.21875 44.675781 144.269531 48.234375 144.269531 55.585938 C 144.269531 57.054688 142.144531 59.710938 140.589844 61.652344 C 137.863281 65.058594 133.738281 70.207031 138.292969 74 C 139.40625 74.925781 140.933594 75.417969 142.710938 75.417969 C 147.042969 75.417969 153.179688 72.4375 156.527344 66.746094 C 159 62.542969 160.808594 55.484375 155.386719 45.726562 Z M 155.386719 45.726562 " fill-opacity="1" fill-rule="nonzero"/><path fill="#faf7f5" d="M 211.09375 96.859375 C 222.582031 91.117188 221.207031 73.011719 221.140625 72.242188 C 221.066406 71.390625 220.628906 70.609375 219.929688 70.109375 C 219.230469 69.609375 218.351562 69.441406 217.519531 69.644531 C 214.953125 70.277344 201.976562 73.773438 198.722656 80.277344 C 196.820312 84.078125 196.367188 90.453125 198.894531 94.542969 C 200.402344 96.984375 202.785156 98.332031 205.597656 98.332031 C 207.292969 98.332031 209.140625 97.835938 211.09375 96.859375 Z M 211.09375 96.859375 " fill-opacity="1" fill-rule="nonzero"/></svg>