<svg xmlns="http://www.w3.org/2000/svg" xmlns:xlink="http://www.w3.org/1999/xlink" width="500" zoomAndPan="magnify" viewBox="0 0 375 374.999991" height="500" preserveAspectRatio="xMidYMid meet" version="1.0"><defs><clipPath id="329062b85f"><path d="M 255 47.34375 L 346 47.34375 L 346 138 L 255 138 Z M 255 47.34375 " clip-rule="nonzero"/></clipPath><clipPath id="3c325ec99e"><path d="M 29 47.34375 L 120 47.34375 L 120 138 L 29 138 Z M 29 47.34375 " clip-rule="nonzero"/></clipPath></defs><path fill="#faf7f5" d="M 207 192.1875 L 168 192.1875 C 137.550781 192.1875 112.875 216.863281 112.875 247.3125 L 112.875 310.085938 C 161.023438 327.636719 213.898438 327.636719 262.050781 310.085938 L 262.050781 247.3125 C 262.125 216.863281 237.449219 192.1875 207 192.1875 Z M 207 192.1875 " fill-opacity="1" fill-rule="nonzero"/><path fill="#faf7f5" d="M 232.726562 128.886719 C 232.726562 130.367188 232.652344 131.847656 232.507812 133.320312 C 232.363281 134.792969 232.144531 136.257812 231.855469 137.710938 C 231.566406 139.164062 231.207031 140.597656 230.777344 142.015625 C 230.347656 143.433594 229.847656 144.824219 229.28125 146.195312 C 228.714844 147.5625 228.082031 148.898438 227.386719 150.207031 C 226.6875 151.511719 225.925781 152.78125 225.101562 154.011719 C 224.28125 155.246094 223.398438 156.433594 222.460938 157.578125 C 221.519531 158.722656 220.527344 159.820312 219.480469 160.867188 C 218.429688 161.914062 217.335938 162.90625 216.191406 163.847656 C 215.046875 164.785156 213.855469 165.667969 212.625 166.492188 C 211.394531 167.3125 210.125 168.074219 208.820312 168.773438 C 207.511719 169.46875 206.175781 170.101562 204.808594 170.667969 C 203.4375 171.238281 202.046875 171.734375 200.628906 172.164062 C 199.210938 172.59375 197.777344 172.953125 196.324219 173.242188 C 194.871094 173.53125 193.40625 173.75 191.933594 173.894531 C 190.457031 174.039062 188.980469 174.113281 187.5 174.113281 C 186.019531 174.113281 184.542969 174.039062 183.066406 173.894531 C 181.59375 173.75 180.128906 173.53125 178.675781 173.242188 C 177.222656 172.953125 175.789062 172.59375 174.371094 172.164062 C 172.953125 171.734375 171.5625 171.238281 170.191406 170.671875 C 168.824219 170.101562 167.488281 169.46875 166.179688 168.773438 C 164.875 168.074219 163.605469 167.3125 162.375 166.492188 C 161.144531 165.667969 159.953125 164.785156 158.808594 163.847656 C 157.664062 162.90625 156.570312 161.914062 155.519531 160.867188 C 154.472656 159.820312 153.480469 158.722656 152.539062 157.578125 C 151.601562 156.433594 150.71875 155.246094 149.898438 154.011719 C 149.074219 152.78125 148.3125 151.511719 147.613281 150.207031 C 146.917969 148.898438 146.285156 147.5625 145.71875 146.195312 C 145.152344 144.824219 144.652344 143.433594 144.222656 142.015625 C 143.792969 140.597656 143.433594 139.164062 143.144531 137.710938 C 142.855469 136.257812 142.636719 134.792969 142.492188 133.320312 C 142.347656 131.847656 142.273438 130.367188 142.273438 128.886719 C 142.273438 127.40625 142.347656 125.929688 142.492188 124.453125 C 142.636719 122.980469 142.855469 121.515625 143.144531 120.066406 C 143.433594 118.613281 143.792969 117.175781 144.222656 115.757812 C 144.652344 114.34375 145.152344 112.949219 145.71875 111.582031 C 146.285156 110.210938 146.917969 108.875 147.613281 107.570312 C 148.3125 106.261719 149.074219 104.992188 149.898438 103.761719 C 150.71875 102.53125 151.601562 101.34375 152.539062 100.195312 C 153.480469 99.050781 154.472656 97.957031 155.519531 96.910156 C 156.570312 95.859375 157.664062 94.867188 158.808594 93.929688 C 159.953125 92.988281 161.144531 92.105469 162.375 91.285156 C 163.605469 90.460938 164.875 89.699219 166.179688 89.003906 C 167.488281 88.304688 168.824219 87.671875 170.191406 87.105469 C 171.5625 86.539062 172.953125 86.039062 174.371094 85.609375 C 175.789062 85.179688 177.222656 84.820312 178.675781 84.53125 C 180.128906 84.242188 181.59375 84.027344 183.066406 83.878906 C 184.542969 83.734375 186.019531 83.664062 187.5 83.664062 C 188.980469 83.664062 190.457031 83.734375 191.933594 83.878906 C 193.40625 84.027344 194.871094 84.242188 196.324219 84.53125 C 197.777344 84.820312 199.210938 85.179688 200.628906 85.609375 C 202.046875 86.039062 203.4375 86.539062 204.808594 87.105469 C 206.175781 87.671875 207.511719 88.304688 208.820312 89.003906 C 210.125 89.699219 211.394531 90.460938 212.625 91.285156 C 213.855469 92.105469 215.046875 92.988281 216.191406 93.929688 C 217.335938 94.867188 218.429688 95.859375 219.480469 96.910156 C 220.527344 97.957031 221.519531 99.050781 222.460938 100.195312 C 223.398438 101.34375 224.28125 102.53125 225.101562 103.761719 C 225.925781 104.992188 226.6875 106.261719 227.386719 107.570312 C 228.082031 108.875 228.714844 110.210938 229.28125 111.582031 C 229.847656 112.949219 230.347656 114.34375 230.777344 115.757812 C 231.207031 117.175781 231.566406 118.613281 231.855469 120.066406 C 232.144531 121.515625 232.363281 122.980469 232.507812 124.453125 C 232.652344 125.929688 232.726562 127.40625 232.726562 128.886719 Z M 232.726562 128.886719 " fill-opacity="1" fill-rule="nonzero"/><path fill="#faf7f5" d="M 319.875 155.886719 L 280.875 155.886719 C 259.425781 155.886719 240.824219 168.1875 231.75 186.113281 C 255.898438 195.9375 273 219.636719 273 247.238281 L 273 285.1875 C 307.199219 289.539062 342.226562 285.710938 375 273.789062 L 375 211.011719 C 375 180.5625 350.324219 155.886719 319.875 155.886719 Z M 319.875 155.886719 " fill-opacity="1" fill-rule="nonzero"/><g clip-path="url(#329062b85f)"><path fill="#faf7f5" d="M 345.601562 92.585938 C 345.601562 94.070312 345.527344 95.546875 345.382812 97.019531 C 345.238281 98.496094 345.019531 99.957031 344.730469 101.410156 C 344.441406 102.863281 344.082031 104.296875 343.652344 105.714844 C 343.222656 107.132812 342.722656 108.527344 342.15625 109.894531 C 341.589844 111.261719 340.957031 112.601562 340.261719 113.90625 C 339.5625 115.210938 338.800781 116.480469 337.976562 117.714844 C 337.15625 118.945312 336.273438 120.132812 335.335938 121.277344 C 334.394531 122.421875 333.402344 123.519531 332.355469 124.566406 C 331.304688 125.613281 330.210938 126.605469 329.066406 127.546875 C 327.921875 128.488281 326.730469 129.367188 325.5 130.191406 C 324.269531 131.011719 323 131.773438 321.695312 132.472656 C 320.386719 133.171875 319.050781 133.804688 317.683594 134.371094 C 316.3125 134.9375 314.921875 135.433594 313.503906 135.863281 C 312.085938 136.296875 310.652344 136.65625 309.199219 136.945312 C 307.746094 137.234375 306.28125 137.449219 304.808594 137.59375 C 303.332031 137.738281 301.855469 137.8125 300.375 137.8125 C 298.894531 137.8125 297.417969 137.738281 295.941406 137.59375 C 294.46875 137.449219 293.003906 137.234375 291.550781 136.945312 C 290.097656 136.65625 288.664062 136.296875 287.246094 135.863281 C 285.828125 135.433594 284.4375 134.9375 283.066406 134.371094 C 281.699219 133.804688 280.363281 133.171875 279.054688 132.472656 C 277.75 131.773438 276.480469 131.011719 275.25 130.191406 C 274.019531 129.367188 272.828125 128.488281 271.683594 127.546875 C 270.539062 126.605469 269.445312 125.613281 268.394531 124.566406 C 267.347656 123.519531 266.355469 122.421875 265.414062 121.277344 C 264.476562 120.132812 263.59375 118.945312 262.773438 117.714844 C 261.949219 116.480469 261.1875 115.210938 260.488281 113.90625 C 259.792969 112.601562 259.160156 111.261719 258.59375 109.894531 C 258.027344 108.527344 257.527344 107.132812 257.097656 105.714844 C 256.667969 104.296875 256.308594 102.863281 256.019531 101.410156 C 255.730469 99.957031 255.511719 98.496094 255.367188 97.019531 C 255.222656 95.546875 255.148438 94.070312 255.148438 92.585938 C 255.148438 91.105469 255.222656 89.628906 255.367188 88.15625 C 255.511719 86.679688 255.730469 85.21875 256.019531 83.765625 C 256.308594 82.3125 256.667969 80.875 257.097656 79.460938 C 257.527344 78.042969 258.027344 76.648438 258.59375 75.28125 C 259.160156 73.914062 259.792969 72.574219 260.488281 71.269531 C 261.1875 69.960938 261.949219 68.695312 262.773438 67.460938 C 263.59375 66.230469 264.476562 65.042969 265.414062 63.898438 C 266.355469 62.753906 267.347656 61.65625 268.394531 60.609375 C 269.445312 59.5625 270.539062 58.566406 271.683594 57.628906 C 272.828125 56.6875 274.019531 55.808594 275.25 54.984375 C 276.480469 54.160156 277.75 53.402344 279.054688 52.703125 C 280.363281 52.003906 281.699219 51.371094 283.066406 50.804688 C 284.4375 50.238281 285.828125 49.738281 287.246094 49.308594 C 288.664062 48.878906 290.097656 48.519531 291.550781 48.230469 C 293.003906 47.941406 294.46875 47.726562 295.941406 47.582031 C 297.417969 47.433594 298.894531 47.363281 300.375 47.363281 C 301.855469 47.363281 303.332031 47.433594 304.808594 47.582031 C 306.28125 47.726562 307.746094 47.941406 309.199219 48.230469 C 310.652344 48.519531 312.085938 48.878906 313.503906 49.308594 C 314.921875 49.738281 316.3125 50.238281 317.683594 50.804688 C 319.050781 51.371094 320.386719 52.003906 321.695312 52.703125 C 323 53.402344 324.269531 54.160156 325.5 54.984375 C 326.730469 55.808594 327.921875 56.6875 329.066406 57.628906 C 330.210938 58.566406 331.304688 59.5625 332.355469 60.609375 C 333.402344 61.65625 334.394531 62.753906 335.335938 63.898438 C 336.273438 65.042969 337.15625 66.230469 337.976562 67.460938 C 338.800781 68.695312 339.5625 69.960938 340.261719 71.269531 C 340.957031 72.574219 341.589844 73.914062 342.15625 75.28125 C 342.722656 76.648438 343.222656 78.042969 343.652344 79.460938 C 344.082031 80.875 344.441406 82.3125 344.730469 83.765625 C 345.019531 85.21875 345.238281 86.679688 345.382812 88.15625 C 345.527344 89.628906 345.601562 91.105469 345.601562 92.585938 Z M 345.601562 92.585938 " fill-opacity="1" fill-rule="nonzero"/></g><path fill="#faf7f5" d="M 143.25 186.1875 C 134.175781 168.261719 115.574219 155.960938 94.125 155.960938 L 55.125 155.960938 C 24.675781 155.886719 0 180.5625 0 211.011719 L 0 273.789062 C 32.851562 285.789062 67.800781 289.539062 102 285.1875 L 102 247.238281 C 102 219.636719 119.101562 195.9375 143.25 186.1875 Z M 143.25 186.1875 " fill-opacity="1" fill-rule="nonzero"/><g clip-path="url(#3c325ec99e)"><path fill="#faf7f5" d="M 119.851562 92.585938 C 119.851562 94.070312 119.777344 95.546875 119.632812 97.019531 C 119.488281 98.496094 119.269531 99.957031 118.980469 101.410156 C 118.691406 102.863281 118.332031 104.296875 117.902344 105.714844 C 117.472656 107.132812 116.972656 108.527344 116.40625 109.894531 C 115.839844 111.261719 115.207031 112.601562 114.511719 113.90625 C 113.8125 115.210938 113.050781 116.480469 112.226562 117.714844 C 111.40625 118.945312 110.523438 120.132812 109.585938 121.277344 C 108.644531 122.421875 107.652344 123.519531 106.605469 124.566406 C 105.554688 125.613281 104.460938 126.605469 103.316406 127.546875 C 102.171875 128.488281 100.980469 129.367188 99.75 130.191406 C 98.519531 131.011719 97.25 131.773438 95.945312 132.472656 C 94.636719 133.171875 93.300781 133.804688 91.933594 134.371094 C 90.5625 134.9375 89.171875 135.433594 87.753906 135.863281 C 86.335938 136.296875 84.902344 136.65625 83.449219 136.945312 C 81.996094 137.234375 80.53125 137.449219 79.058594 137.59375 C 77.582031 137.738281 76.105469 137.8125 74.625 137.8125 C 73.144531 137.8125 71.667969 137.738281 70.191406 137.59375 C 68.71875 137.449219 67.253906 137.234375 65.800781 136.945312 C 64.347656 136.65625 62.914062 136.296875 61.496094 135.863281 C 60.078125 135.433594 58.6875 134.9375 57.316406 134.371094 C 55.949219 133.804688 54.613281 133.171875 53.304688 132.472656 C 52 131.773438 50.730469 131.011719 49.5 130.191406 C 48.269531 129.367188 47.078125 128.488281 45.933594 127.546875 C 44.789062 126.605469 43.695312 125.613281 42.644531 124.566406 C 41.597656 123.519531 40.605469 122.421875 39.664062 121.277344 C 38.726562 120.132812 37.84375 118.945312 37.023438 117.714844 C 36.199219 116.480469 35.4375 115.210938 34.738281 113.90625 C 34.042969 112.601562 33.410156 111.261719 32.84375 109.894531 C 32.277344 108.527344 31.777344 107.132812 31.347656 105.714844 C 30.917969 104.296875 30.558594 102.863281 30.269531 101.410156 C 29.980469 99.957031 29.761719 98.496094 29.617188 97.019531 C 29.472656 95.546875 29.398438 94.070312 29.398438 92.585938 C 29.398438 91.105469 29.472656 89.628906 29.617188 88.15625 C 29.761719 86.679688 29.980469 85.21875 30.269531 83.765625 C 30.558594 82.3125 30.917969 80.875 31.347656 79.460938 C 31.777344 78.042969 32.277344 76.648438 32.84375 75.28125 C 33.410156 73.914062 34.042969 72.574219 34.738281 71.269531 C 35.4375 69.960938 36.199219 68.695312 37.023438 67.460938 C 37.84375 66.230469 38.726562 65.042969 39.664062 63.898438 C 40.605469 62.753906 41.597656 61.65625 42.644531 60.609375 C 43.695312 59.5625 44.789062 58.566406 45.933594 57.628906 C 47.078125 56.6875 48.269531 55.808594 49.5 54.984375 C 50.730469 54.160156 52 53.402344 53.304688 52.703125 C 54.613281 52.003906 55.949219 51.371094 57.316406 50.804688 C 58.6875 50.238281 60.078125 49.738281 61.496094 49.308594 C 62.914062 48.878906 64.347656 48.519531 65.800781 48.230469 C 67.253906 47.941406 68.71875 47.726562 70.191406 47.582031 C 71.667969 47.433594 73.144531 47.363281 74.625 47.363281 C 76.105469 47.363281 77.582031 47.433594 79.058594 47.582031 C 80.53125 47.726562 81.996094 47.941406 83.449219 48.230469 C 84.902344 48.519531 86.335938 48.878906 87.753906 49.308594 C 89.171875 49.738281 90.5625 50.238281 91.933594 50.804688 C 93.300781 51.371094 94.636719 52.003906 95.945312 52.703125 C 97.25 53.402344 98.519531 54.160156 99.75 54.984375 C 100.980469 55.808594 102.171875 56.6875 103.316406 57.628906 C 104.460938 58.566406 105.554688 59.5625 106.605469 60.609375 C 107.652344 61.65625 108.644531 62.753906 109.585938 63.898438 C 110.523438 65.042969 111.40625 66.230469 112.226562 67.460938 C 113.050781 68.695312 113.8125 69.960938 114.511719 71.269531 C 115.207031 72.574219 115.839844 73.914062 116.40625 75.28125 C 116.972656 76.648438 117.472656 78.042969 117.902344 79.460938 C 118.332031 80.875 118.691406 82.3125 118.980469 83.765625 C 119.269531 85.21875 119.488281 86.679688 119.632812 88.15625 C 119.777344 89.628906 119.851562 91.105469 119.851562 92.585938 Z M 119.851562 92.585938 " fill-opacity="1" fill-rule="nonzero"/></g></svg>