<svg xmlns="http://www.w3.org/2000/svg" xmlns:xlink="http://www.w3.org/1999/xlink" width="500" zoomAndPan="magnify" viewBox="0 0 375 374.999991" height="500" preserveAspectRatio="xMidYMid meet" version="1.0"><path fill="#faf7f5" d="M 336.308594 0 L 38.691406 0 C 17.261719 0 0 17.261719 0 38.691406 L 0 80.355469 C 0 85.417969 3.867188 89.285156 8.929688 89.285156 L 366.070312 89.285156 C 371.132812 89.285156 375 85.417969 375 80.355469 L 375 38.691406 C 375 17.261719 357.738281 0 336.308594 0 Z M 62.5 53.570312 L 50.59375 53.570312 C 45.535156 53.570312 41.667969 49.703125 41.667969 44.644531 C 41.667969 39.582031 45.535156 35.714844 50.59375 35.714844 L 62.5 35.714844 C 67.558594 35.714844 71.429688 39.582031 71.429688 44.644531 C 71.429688 49.703125 67.558594 53.570312 62.5 53.570312 Z M 110.117188 53.570312 L 98.214844 53.570312 C 93.15625 53.570312 89.285156 49.703125 89.285156 44.644531 C 89.285156 39.582031 93.15625 35.714844 98.214844 35.714844 L 110.117188 35.714844 C 115.179688 35.714844 119.046875 39.582031 119.046875 44.644531 C 119.046875 49.703125 115.179688 53.570312 110.117188 53.570312 Z M 324.40625 53.570312 L 223.214844 53.570312 C 218.15625 53.570312 214.285156 49.703125 214.285156 44.644531 C 214.285156 39.582031 218.15625 35.714844 223.214844 35.714844 L 324.40625 35.714844 C 329.464844 35.714844 333.332031 39.582031 333.332031 44.644531 C 333.332031 49.703125 329.464844 53.570312 324.40625 53.570312 Z M 366.070312 107.144531 L 8.929688 107.144531 C 3.867188 107.144531 0 111.011719 0 116.070312 L 0 336.308594 C 0 357.738281 17.261719 375 38.691406 375 L 336.308594 375 C 357.738281 375 375 357.738281 375 336.308594 L 375 116.070312 C 375 111.011719 371.132812 107.144531 366.070312 107.144531 Z M 252.976562 310.117188 C 252.976562 318.15625 246.726562 324.40625 238.691406 324.40625 L 135.117188 324.40625 C 129.167969 324.40625 124.40625 319.644531 124.40625 313.691406 L 124.40625 302.976562 C 124.40625 299.703125 125.296875 296.132812 127.679688 293.75 C 128.570312 292.855469 129.464844 291.964844 130.355469 291.367188 C 134.820312 288.394531 140.179688 288.09375 144.644531 290.476562 C 149.105469 292.855469 154.167969 293.75 159.226562 293.75 C 166.964844 293.453125 174.40625 289.882812 179.464844 283.929688 C 185.117188 277.382812 187.5 269.046875 186.011719 260.417969 C 184.226562 249.703125 175.894531 240.476562 165.476562 237.796875 C 157.441406 235.714844 149.105469 237.203125 142.261719 241.367188 C 138.394531 243.75 133.929688 244.34375 129.761719 242.855469 C 129.761719 242.855469 129.464844 242.855469 129.464844 242.855469 C 126.488281 241.367188 124.703125 238.394531 124.703125 235.117188 L 124.703125 221.132812 C 124.703125 215.179688 129.464844 210.417969 135.417969 210.417969 L 151.191406 210.417969 C 155.953125 210.417969 161.011719 208.332031 163.691406 204.167969 C 166.667969 199.40625 166.667969 193.453125 163.988281 188.691406 C 159.820312 181.84375 158.929688 173.511719 161.605469 165.476562 C 164.882812 155.058594 174.40625 147.320312 185.417969 146.132812 C 194.046875 145.238281 202.382812 147.917969 208.632812 153.867188 C 214.285156 159.226562 217.558594 166.667969 217.558594 174.703125 C 217.558594 179.761719 216.070312 184.820312 213.691406 188.988281 C 211.011719 193.75 211.011719 199.40625 214.285156 204.167969 C 216.964844 208.332031 221.726562 210.417969 226.785156 210.417969 L 246.132812 210.417969 C 250 210.417969 253.273438 213.691406 253.273438 217.558594 L 253.273438 310.117188 Z M 252.976562 310.117188 " fill-opacity="1" fill-rule="nonzero"/></svg>