<svg xmlns="http://www.w3.org/2000/svg" xmlns:xlink="http://www.w3.org/1999/xlink" width="500" zoomAndPan="magnify" viewBox="0 0 375 374.999991" height="500" preserveAspectRatio="xMidYMid meet" version="1.0"><path fill="#faf7f5" d="M 105.964844 51.121094 C 105.585938 54.3125 105.234375 57.324219 105.214844 59.4375 C 105.113281 75.980469 113.101562 92.300781 125.089844 100.058594 C 130.703125 103.699219 136.863281 105.269531 143.289062 104.761719 C 143.308594 104.761719 143.324219 104.761719 143.34375 104.761719 C 147.230469 104.445312 151.21875 103.371094 155.242188 101.527344 C 159.3125 99.671875 162.324219 97.082031 164.46875 94.027344 C 164.589844 93.796875 164.734375 93.582031 164.90625 93.375 C 170.097656 85.378906 169.703125 74.472656 166.820312 65.210938 C 162.648438 51.765625 153.929688 41.28125 142.964844 33.460938 C 131.808594 25.507812 118.671875 20.609375 104.976562 20.085938 C 104.316406 20.058594 103.644531 20.042969 102.976562 20.03125 C 104.753906 22.589844 105.835938 25.578125 106.425781 28.792969 C 107.765625 35.875 106.796875 44.050781 105.964844 51.121094 Z M 105.964844 51.121094 " fill-opacity="1" fill-rule="nonzero"/><path fill="#faf7f5" d="M 247.25 214.761719 C 266.566406 214.761719 283.984375 218.347656 287.410156 219.09375 C 287.632812 219.136719 287.804688 219.179688 288.019531 219.214844 C 316.042969 224.03125 337.640625 219.894531 352.195312 206.9375 C 374.816406 186.789062 374.066406 151.117188 373.691406 144.164062 C 373.648438 143.453125 373.578125 142.90625 373.449219 142.253906 C 362.082031 84.03125 329.300781 44.195312 276.03125 23.886719 C 236.101562 8.664062 199.1875 10.6875 198.816406 10.722656 C 177.710938 12.191406 157.886719 15.484375 139.730469 20.539062 C 141.652344 21.578125 143.417969 22.632812 145.03125 23.679688 C 155.441406 30.433594 164.066406 39.710938 169.867188 50.144531 C 171.429688 52.96875 172.792969 55.867188 173.917969 58.828125 C 186.960938 59.410156 197.386719 70.207031 197.386719 83.378906 C 197.386719 93.433594 191.207031 102.429688 182.078125 106.160156 L 187.773438 113.207031 C 187.78125 113.222656 187.800781 113.230469 187.808594 113.25 C 189.664062 115.429688 191.265625 117.796875 192.699219 120.277344 Z M 280.449219 125.460938 C 266.351562 125.460938 254.988281 113.539062 255.90625 99.253906 C 256.722656 86.578125 267.378906 76.460938 280.089844 76.28125 C 293.820312 76.085938 305.042969 87.1875 305.042969 100.875 C 305.035156 114.425781 294.007812 125.460938 280.449219 125.460938 Z M 280.449219 125.460938 " fill-opacity="1" fill-rule="nonzero"/><path fill="#faf7f5" d="M 240.890625 221.316406 L 217.757812 181.246094 L 193.070312 195.496094 L 210.445312 225.582031 C 210.453125 225.589844 210.460938 225.609375 210.472656 225.625 C 210.539062 225.738281 210.601562 225.847656 210.652344 225.960938 L 286.421875 357.1875 C 290.359375 363.992188 299.085938 366.335938 305.890625 362.40625 C 312.695312 358.46875 315.039062 349.742188 311.109375 342.9375 Z M 240.890625 221.316406 " fill-opacity="1" fill-rule="nonzero"/><path fill="#faf7f5" d="M 160.800781 139.613281 L 185.5 125.359375 L 213.367188 173.648438 L 188.667969 187.898438 Z M 160.800781 139.613281 " fill-opacity="1" fill-rule="nonzero"/><path fill="#faf7f5" d="M 187.234375 253.386719 C 187.921875 242.09375 192.511719 233.117188 200.902344 226.636719 L 183.269531 196.089844 L 183.132812 195.832031 L 151.011719 140.191406 C 150.867188 139.945312 150.746094 139.667969 150.652344 139.402344 L 140.742188 113.617188 C 133.566406 113.574219 126.625 111.507812 120.335938 107.4375 C 105.921875 98.113281 96.316406 78.796875 96.445312 59.378906 C 96.464844 56.777344 96.832031 53.679688 97.253906 50.09375 C 97.742188 45.949219 98.328125 41.066406 98.308594 36.542969 C 15.417969 79.15625 7.273438 158.617188 6.964844 162.058594 C 6.9375 162.28125 6.921875 162.46875 6.894531 162.691406 C 0.117188 218.230469 9.984375 263.304688 36.226562 296.710938 C 72.675781 343.125 130.539062 354.527344 153.714844 357.273438 C 172.542969 359.507812 193.042969 350.984375 202.464844 337.03125 C 206.917969 330.417969 210.710938 319.757812 203.453125 306.5 C 191.84375 285.316406 186.394531 267.449219 187.234375 253.386719 Z M 69.742188 262.558594 C 55.242188 262.558594 43.640625 249.945312 45.320312 235.117188 C 46.601562 223.839844 55.6875 214.769531 66.960938 213.527344 C 81.765625 211.894531 94.34375 223.488281 94.34375 237.964844 C 94.335938 251.523438 83.300781 262.558594 69.742188 262.558594 Z M 81.867188 160.351562 C 66.738281 161.558594 54.152344 148.972656 55.351562 133.835938 C 56.296875 121.925781 65.949219 112.269531 77.859375 111.328125 C 92.996094 110.125 105.585938 122.714844 104.375 137.839844 C 103.421875 149.753906 93.777344 159.398438 81.867188 160.351562 Z M 81.867188 160.351562 " fill-opacity="1" fill-rule="nonzero"/><path fill="#faf7f5" d="M 168.261719 103.070312 C 165.652344 105.6875 162.519531 107.867188 158.90625 109.515625 C 155.871094 110.90625 152.808594 111.945312 149.753906 112.621094 L 157.054688 131.628906 L 180.453125 118.121094 Z M 168.261719 103.070312 " fill-opacity="1" fill-rule="nonzero"/></svg>