<svg xmlns="http://www.w3.org/2000/svg" xmlns:xlink="http://www.w3.org/1999/xlink" width="500" zoomAndPan="magnify" viewBox="0 0 375 374.999991" height="500" preserveAspectRatio="xMidYMid meet" version="1.0"><defs><clipPath id="4a45c587ca"><path d="M 23.4375 0 L 351.9375 0 L 351.9375 375 L 23.4375 375 Z M 23.4375 0 " clip-rule="nonzero"/></clipPath></defs><g clip-path="url(#4a45c587ca)"><path fill="#faf7f5" d="M 269.515625 28.902344 C 229.414062 28.121094 198.164062 7.289062 187.488281 0 C 176.8125 7.289062 145.5625 28.121094 105.460938 28.902344 C 61.449219 29.945312 33.847656 19.269531 23.429688 12.238281 L 23.429688 155.460938 C 23.429688 246.085938 93.742188 348.425781 187.488281 374.984375 C 234.363281 361.703125 275.503906 329.414062 304.671875 289.3125 C 333.835938 249.210938 351.542969 200.773438 351.542969 155.460938 L 351.542969 12.238281 C 341.128906 19.269531 313.523438 29.945312 269.515625 28.902344 Z M 333.835938 155.460938 C 333.835938 195.824219 317.953125 240.875 290.347656 278.894531 C 262.746094 316.914062 226.289062 344.257812 187.488281 356.757812 C 148.425781 344.519531 112.230469 316.914062 84.625 279.15625 C 57.023438 241.398438 41.140625 195.824219 41.140625 155.460938 L 41.140625 38.800781 C 60.148438 44.269531 79.9375 46.871094 99.730469 46.613281 L 105.980469 46.613281 C 133.324219 45.832031 161.1875 36.976562 187.488281 20.832031 C 213.789062 36.976562 241.652344 45.832031 268.996094 46.351562 L 275.246094 46.351562 C 295.035156 46.613281 314.828125 44.007812 333.835938 38.539062 Z M 316.390625 60.933594 L 316.390625 155.460938 C 316.390625 192.441406 301.808594 233.585938 276.285156 268.480469 C 252.070312 301.550781 220.820312 326.027344 187.488281 338.007812 C 154.15625 326.027344 122.90625 301.550781 98.6875 268.480469 C 73.167969 233.585938 58.585938 192.179688 58.585938 155.460938 L 58.585938 60.933594 C 72.128906 63.277344 85.929688 64.320312 99.730469 64.320312 L 106.242188 64.320312 C 134.886719 63.277344 162.488281 55.464844 187.488281 41.402344 C 212.226562 55.464844 240.089844 63.277344 268.734375 64.320312 L 275.246094 64.320312 C 289.046875 64.320312 302.847656 63.019531 316.390625 60.933594 Z M 316.390625 60.933594 " fill-opacity="1" fill-rule="nonzero"/></g></svg>